<svg xmlns="http://www.w3.org/2000/svg" xmlns:svg="http://www.w3.org/2000/svg" id="svg825" width="48mm" height="48mm" version="1.1" viewBox="0 0 48 48"><metadata id="metadata822"/><g id="layer1" transform="translate(0,-249)"><rect style="fill:none;fill-opacity:1;stroke:#000009;stroke-width:1.15513849;stroke-miterlimit:4;stroke-dasharray:none;stroke-opacity:1" id="rect1373" width="13.186" height="21.335" x="1.661" y="263.01" ry=".247"/><rect style="fill:none;fill-opacity:1;stroke:#000009;stroke-width:1.3136493;stroke-miterlimit:4;stroke-dasharray:none;stroke-opacity:1" id="rect1373-3" width="13.027" height="27.927" x="17.454" y="259.497" ry=".323"/><rect style="fill:none;fill-opacity:1;stroke:#000009;stroke-width:1.15513849;stroke-miterlimit:4;stroke-dasharray:none;stroke-opacity:1" id="rect1373-6" width="13.186" height="21.335" x="33.213" y="263.019" ry=".247"/><path style="fill:none;fill-rule:evenodd;stroke:#000;stroke-width:1.05700576;stroke-linecap:round;stroke-linejoin:round;stroke-miterlimit:4;stroke-dasharray:none;stroke-opacity:1" id="path1396" d="m 3.7013752,270.56043 c 7.8779588,0.0395 9.1843548,0 9.1843548,0"/><path style="fill:none;fill-rule:evenodd;stroke:#000;stroke-width:1.05700576;stroke-linecap:round;stroke-linejoin:round;stroke-miterlimit:4;stroke-dasharray:none;stroke-opacity:1" id="path1396-7" d="m 3.7013752,273.83103 c 7.8779588,0.0395 9.1843548,0 9.1843548,0"/><path style="fill:none;fill-rule:evenodd;stroke:#000;stroke-width:1.05700576;stroke-linecap:round;stroke-linejoin:round;stroke-miterlimit:4;stroke-dasharray:none;stroke-opacity:1" id="path1396-7-5" d="m 3.7013752,277.51456 c 7.8779578,0.0395 9.1843538,0 9.1843538,0"/><path style="fill:none;fill-rule:evenodd;stroke:#000;stroke-width:1.05700576;stroke-linecap:round;stroke-linejoin:round;stroke-miterlimit:4;stroke-dasharray:none;stroke-opacity:1" id="path1396-3" d="m 19.649219,270.38291 c 7.877959,0.0395 9.184354,0 9.184354,0"/><path style="fill:none;fill-rule:evenodd;stroke:#000;stroke-width:1.05700576;stroke-linecap:round;stroke-linejoin:round;stroke-miterlimit:4;stroke-dasharray:none;stroke-opacity:1" id="path1396-7-56" d="m 19.649219,273.65352 c 7.877959,0.0395 9.184354,0 9.184354,0"/><path style="fill:none;fill-rule:evenodd;stroke:#000;stroke-width:1.05700576;stroke-linecap:round;stroke-linejoin:round;stroke-miterlimit:4;stroke-dasharray:none;stroke-opacity:1" id="path1396-7-5-2" d="m 19.649219,277.33704 c 7.877958,0.0395 9.184353,0 9.184353,0"/><path style="fill:none;fill-rule:evenodd;stroke:#000;stroke-width:1.05700576;stroke-linecap:round;stroke-linejoin:round;stroke-miterlimit:4;stroke-dasharray:none;stroke-opacity:1" id="path1396-3-9" d="m 35.540148,270.5948 c 7.877959,0.0395 9.184355,0 9.184355,0"/><path style="fill:none;fill-rule:evenodd;stroke:#000;stroke-width:1.05700576;stroke-linecap:round;stroke-linejoin:round;stroke-miterlimit:4;stroke-dasharray:none;stroke-opacity:1" id="path1396-7-56-1" d="m 35.540148,273.86541 c 7.877959,0.0395 9.184355,0 9.184355,0"/><path style="fill:none;fill-rule:evenodd;stroke:#000;stroke-width:1.05700576;stroke-linecap:round;stroke-linejoin:round;stroke-miterlimit:4;stroke-dasharray:none;stroke-opacity:1" id="path1396-7-5-2-2" d="m 35.540148,277.54893 c 7.877958,0.0395 9.184353,0 9.184353,0"/></g></svg>